<?xml version="1.0" standalone="no"?>
<!DOCTYPE svg PUBLIC "-//W3C//DTD SVG 20010904//EN"
 "http://www.w3.org/TR/2001/REC-SVG-20010904/DTD/svg10.dtd">
<svg version="1.0" xmlns="http://www.w3.org/2000/svg"
 width="355.000000pt" height="85.000000pt" viewBox="0 0 355.000000 85.000000"
 preserveAspectRatio="xMidYMid meet">

<g transform="translate(0.000000,85.000000) scale(0.100000,-0.100000)"
fill="#000000" stroke="none">
<path d="M1434 613 c-142 -203 -185 -256 -228 -283 -35 -21 -66 -26 -66 -11 0
5 29 45 65 89 36 44 65 82 65 86 0 12 -28 6 -41 -10 -11 -14 -13 -14 -21 0
-10 18 -54 21 -93 6 -15 -6 -63 -46 -108 -90 -73 -73 -118 -102 -133 -87 -12
12 9 48 56 98 28 30 50 55 50 56 0 2 -12 3 -27 3 -18 0 -23 -3 -16 -8 9 -6 -1
-19 -32 -46 -55 -46 -78 -78 -69 -100 11 -29 66 -20 117 19 l46 35 3 -33 c2
-26 8 -33 28 -35 15 -2 41 7 61 21 l36 24 -5 -23 c-4 -21 0 -24 25 -24 15 0
45 11 65 25 l37 25 3 -23 c2 -17 10 -22 33 -24 20 -1 23 0 8 4 -13 2 -23 9
-23 15 0 5 68 104 150 218 83 115 153 216 156 224 4 10 1 16 -9 16 -9 0 -68
-75 -133 -167z m-234 -142 c0 -39 -123 -161 -161 -161 -43 0 -6 74 68 140 50
44 93 53 93 21z"/>
<path d="M2414 738 c-25 -23 -79 -94 -121 -157 -112 -173 -117 -180 -122 -176
-2 3 2 11 9 20 16 19 7 30 -16 21 -12 -5 -15 -14 -11 -36 6 -26 1 -33 -40 -65
-42 -32 -93 -47 -93 -27 0 12 28 51 82 113 53 63 56 69 31 69 -19 0 -103 -97
-124 -142 -27 -60 27 -78 94 -33 20 14 37 24 37 22 0 -2 -22 -37 -49 -78 -65
-99 -93 -156 -89 -182 4 -32 44 -34 75 -5 36 32 80 130 88 191 9 73 15 89 30
83 8 -3 11 2 8 13 -3 13 10 29 46 55 129 95 267 287 242 335 -16 29 -25 27
-77 -21z m62 -12 c-9 -44 -68 -129 -145 -209 -64 -66 -114 -106 -95 -75 56 92
182 279 202 300 30 33 46 27 38 -16z m-325 -472 c-22 -86 -84 -184 -118 -184
-28 0 -14 29 110 222 18 27 21 13 8 -38z"/>
<path d="M2567 726 c-29 -30 -88 -111 -132 -181 -44 -70 -83 -128 -86 -130 -3
-2 -5 5 -5 15 2 35 -19 26 -22 -10 -3 -39 -24 -60 -59 -60 -13 0 -23 -4 -23
-9 0 -10 48 1 72 15 8 5 7 -1 -3 -16 -132 -202 -157 -253 -139 -276 18 -21 48
-17 76 11 27 27 74 121 73 145 -1 13 -1 13 -6 0 -15 -41 -57 -118 -75 -138
-19 -19 -58 -31 -58 -17 0 12 32 68 87 151 38 59 58 82 64 73 5 -8 9 0 11 22
2 20 8 33 15 32 7 -2 10 3 7 11 -3 8 23 37 69 75 157 130 272 312 211 335 -23
9 -22 10 -77 -48z m77 35 c21 -34 -101 -216 -197 -294 -26 -21 -47 -36 -47
-33 0 8 160 256 193 299 29 37 41 44 51 28z"/>
<path d="M704 747 c19 -14 17 -16 -29 -66 -26 -28 -50 -49 -53 -47 -9 10 9 55
35 88 l26 33 -33 -31 c-20 -20 -37 -49 -44 -77 -13 -50 -47 -83 -217 -209 -54
-40 -96 -74 -94 -76 5 -5 168 107 249 170 l60 46 24 -19 c35 -27 48 -23 15 5
l-27 24 57 62 c61 65 71 101 32 108 -20 4 -20 4 -1 -11z"/>
<path d="M2287 727 c-26 -20 -39 -22 -181 -22 -152 0 -153 0 -202 -30 -88 -55
-110 -135 -38 -143 54 -7 110 38 134 106 l10 27 -17 -25 c-32 -47 -94 -100
-116 -100 -25 0 -47 17 -47 36 0 22 51 74 93 95 36 19 51 20 156 14 130 -8
179 1 226 40 37 30 21 32 -18 2z"/>
<path d="M356 716 c4 -10 -6 -30 -25 -52 -32 -36 -37 -64 -13 -72 7 -2 11 0
10 5 -2 4 10 25 25 45 29 37 33 78 9 86 -7 2 -10 -2 -6 -12z"/>
<path d="M250 710 c-9 -6 -10 -10 -3 -10 6 0 15 5 18 10 8 12 4 12 -15 0z"/>
<path d="M500 695 c-26 -31 -92 -78 -128 -91 -20 -7 -29 -13 -19 -14 10 0 27
5 38 10 20 11 28 -3 8 -16 -6 -3 -48 -64 -94 -134 -46 -70 -93 -135 -106 -144
-13 -9 -19 -16 -14 -16 12 0 98 56 94 61 -2 2 27 43 63 90 36 48 84 119 107
158 23 39 52 80 63 91 12 11 17 20 11 20 -6 0 -16 -7 -23 -15z"/>
<path d="M2036 599 c-31 -28 -87 -93 -126 -144 -81 -109 -131 -145 -203 -145
-25 0 -49 5 -52 11 -4 6 7 28 25 50 18 22 30 42 27 45 -2 3 -12 -7 -21 -21 -9
-14 -21 -25 -27 -25 -6 0 -24 -13 -39 -30 -27 -29 -80 -42 -80 -21 0 10 55 85
102 139 33 38 34 42 10 42 -10 0 -46 -34 -81 -76 -34 -41 -77 -84 -94 -95 -33
-19 -77 -26 -77 -11 0 5 32 47 70 95 96 119 64 114 -54 -7 -50 -52 -83 -90
-74 -85 9 5 20 15 25 21 5 9 9 5 13 -12 8 -36 55 -38 103 -6 l37 25 0 -24 c0
-22 5 -25 33 -25 18 0 43 7 55 16 21 15 25 15 41 0 27 -24 103 -20 159 8 58
29 143 117 206 213 26 40 59 82 73 93 14 11 21 20 15 20 -6 0 -35 -23 -66 -51z"/>
<path d="M822 600 c-16 -23 -35 -39 -47 -40 -14 0 -16 -3 -7 -8 22 -14 -87
-158 -162 -213 -37 -28 -86 -39 -86 -20 0 10 27 47 93 124 45 52 47 57 25 57
-16 -1 -37 -19 -72 -63 -27 -34 -53 -72 -59 -84 -29 -64 52 -73 118 -12 20 18
21 18 20 -9 0 -40 49 -43 97 -5 40 33 155 163 143 163 -3 0 -1 9 5 19 7 14 7
22 0 26 -17 11 -41 -16 -34 -37 12 -40 -123 -188 -173 -188 -34 0 -28 12 65
137 l76 103 46 2 c43 1 44 2 8 5 -43 5 -45 9 -18 43 24 30 25 40 5 40 -8 0
-28 -18 -43 -40z"/>
<path d="M680 595 c-10 -11 -10 -19 -2 -27 15 -15 44 -2 40 19 -4 23 -22 27
-38 8z"/>
<path d="M1567 604 c-15 -15 -7 -45 11 -42 9 2 17 12 17 22 0 20 -16 31 -28
20z"/>
<path d="M1700 595 c-10 -12 -10 -19 -2 -27 15 -15 48 14 38 31 -10 15 -21 14
-36 -4z"/>
<path d="M2180 595 c-10 -12 -10 -19 -2 -27 15 -15 48 14 38 31 -10 15 -21 14
-36 -4z"/>
<path d="M2605 488 c-11 -6 -46 -35 -77 -65 -33 -31 -70 -56 -88 -59 -17 -4
-33 -11 -36 -16 -6 -10 40 -1 68 13 14 8 17 3 20 -23 3 -29 7 -33 34 -36 22
-2 40 5 63 23 l31 27 -2 -24 c-3 -20 2 -23 31 -26 31 -3 41 4 128 93 52 54 96
95 99 92 3 -3 -21 -44 -55 -91 -34 -48 -61 -88 -61 -91 0 -3 7 -5 17 -5 9 0
50 37 92 82 42 44 89 89 106 100 16 10 25 18 19 18 -18 0 -90 -56 -114 -90
-12 -17 -24 -29 -27 -27 -2 3 10 25 28 50 31 45 32 67 2 67 -9 0 -58 -43 -108
-95 -61 -64 -98 -95 -113 -95 -35 0 -26 21 38 98 33 39 60 76 60 81 0 14 -23
14 -37 0 -8 -8 -13 -8 -17 0 -9 14 -75 14 -101 -1z m90 -9 c9 -14 -40 -83 -93
-130 -60 -52 -101 -53 -81 -2 30 79 151 170 174 132z"/>
<path d="M3016 487 c2 -7 -18 -41 -46 -76 -59 -73 -63 -104 -15 -109 20 -2 44
6 68 22 l37 25 0 -24 c0 -21 5 -25 28 -24 16 1 20 3 10 6 -30 8 -21 27 53 112
64 74 68 81 45 81 -19 0 -40 -18 -87 -75 -64 -78 -112 -115 -148 -115 -29 0
-27 6 20 57 61 66 83 133 43 133 -7 0 -11 -6 -8 -13z"/>
<path d="M3307 476 c-9 -13 -46 -54 -83 -91 -36 -38 -52 -58 -34 -45 36 26 33
19 -25 -59 -33 -43 -55 -60 -121 -92 -153 -73 -193 -148 -66 -124 28 5 55 26
123 96 47 49 84 91 82 93 -2 2 31 50 74 106 115 150 109 140 85 140 -11 0 -27
-11 -35 -24z m-247 -323 c-50 -57 -87 -83 -117 -83 -55 0 -12 50 82 98 33 17
64 31 68 32 5 0 -10 -21 -33 -47z"/>
<path d="M3305 346 c-38 -39 -79 -77 -90 -84 -11 -7 -5 -5 13 3 33 16 152 131
152 147 0 11 3 14 -75 -66z"/>
<path d="M2321 264 c0 -11 3 -14 6 -6 3 7 2 16 -1 19 -3 4 -6 -2 -5 -13z"/>
</g>
</svg>
